<svg width="17" height="10" viewBox="0 0 17 10" fill="none" xmlns="http://www.w3.org/2000/svg">
<path d="M0.480333 0.260551C0.753721 0.0703334 1.10543 -0.0212463 1.45883 0.00576251C1.81223 0.0327713 2.13869 0.17618 2.36709 0.404746L8.04045 6.12871L13.7076 0.404841C13.9351 0.175378 14.2617 0.0313906 14.6155 0.00455475C14.9693 -0.0222811 15.3213 0.0702329 15.5942 0.261745C15.867 0.453256 16.0383 0.728079 16.0703 1.02575C16.1024 1.32343 15.9926 1.61957 15.7651 1.84903L9.07014 8.61203C8.94454 8.73881 8.78735 8.84081 8.60969 8.91081C8.43203 8.98081 8.23823 9.01709 8.04202 9.01709C7.8458 9.01709 7.65197 8.98081 7.47423 8.91081C7.29649 8.84081 7.13919 8.73881 7.01346 8.61203L0.31113 1.84894C0.0834591 1.61924 -0.0265969 1.32295 0.00512804 1.02514C0.036853 0.727328 0.207764 0.452336 0.480333 0.260551Z" fill="#008C98"/>
</svg>
