<svg width="18" height="19" viewBox="0 0 18 19" fill="none" xmlns="http://www.w3.org/2000/svg">
<path d="M3.32465 5.9496C3.32465 4.55737 3.87771 3.22216 4.86217 2.23771C5.84662 1.25326 7.18183 0.700195 8.57406 0.700195C9.96629 0.700195 11.3015 1.25326 12.286 2.23771C13.2704 3.22216 13.8235 4.55737 13.8235 5.9496C13.8235 12.0739 16.4482 13.8237 16.4482 13.8237H0.699951C0.699951 13.8237 3.32465 12.0739 3.32465 5.9496Z" stroke="#E8A712" stroke-width="1.4" stroke-linecap="round" stroke-linejoin="round"/>
<path d="M7.08667 17.3232C7.23311 17.5896 7.4484 17.8117 7.71003 17.9665C7.97166 18.1212 8.27004 18.2028 8.574 18.2028C8.87796 18.2028 9.17634 18.1212 9.43797 17.9665C9.69961 17.8117 9.91489 17.5896 10.0613 17.3232" stroke="#E8A712" stroke-width="1.4" stroke-linecap="round" stroke-linejoin="round"/>
</svg>
