<svg width="114" height="91" viewBox="0 0 114 91" fill="none" xmlns="http://www.w3.org/2000/svg">
<path d="M61.9347 10.3936C33.6987 10.3936 10.8102 34.3428 10.8102 63.8851C10.8102 72.9623 12.9754 81.5103 16.7892 89H107.083C110.897 81.5103 113.062 72.9623 113.062 63.8851C113.062 34.3428 90.1707 10.3936 61.9347 10.3936Z" fill="#C9E7E9" fill-opacity="0.4"/>
<path d="M107.653 54.514C108.213 55.1965 109.082 55.5441 109.918 55.5646C110.756 55.5825 111.587 55.3269 112.247 54.8514C111.528 55.2272 110.718 55.4138 109.936 55.3141C109.159 55.2374 108.417 54.8667 107.967 54.266C107.875 54.1408 107.796 54.0053 107.725 53.8647C108.351 53.7241 108.944 53.3841 109.358 52.8678C109.634 52.515 109.826 52.0779 109.831 51.5973C109.831 51.3596 109.78 51.1014 109.629 50.879C109.481 50.6541 109.235 50.4982 108.987 50.4419C108.739 50.3806 108.479 50.401 108.243 50.4828C108.011 50.5672 107.811 50.7052 107.645 50.8663C107.316 51.1909 107.101 51.6076 107.011 52.0472C106.909 52.5508 106.958 53.062 107.116 53.5324C107.091 53.5349 107.062 53.5401 107.037 53.5401C106.27 53.5835 105.485 53.3816 104.749 53.0774C104.005 52.7809 103.313 52.3565 102.671 51.8581C103.236 52.4434 103.913 52.9215 104.644 53.3023C105.375 53.6704 106.191 53.9491 107.052 53.9363C107.126 53.9363 107.203 53.9312 107.277 53.9235C107.379 54.1382 107.505 54.335 107.653 54.514ZM107.484 52.1546C107.564 51.8018 107.737 51.4695 107.993 51.2267C108.243 50.9813 108.568 50.8586 108.865 50.9378C109.164 51.0017 109.33 51.2574 109.33 51.5999C109.332 51.9348 109.189 52.285 108.975 52.5713C108.757 52.8601 108.458 53.0978 108.123 53.264C107.942 53.3509 107.753 53.4174 107.556 53.4634C107.418 53.0365 107.379 52.5815 107.484 52.1546Z" fill="#DEDDF9"/>
<path d="M37.5051 62.8064L13.9751 63.1131L21.4955 66.6944L18.9367 72.474L23.52 70.3396L22.3646 68.6371L27.8886 76.771L37.5051 62.8064Z" fill="#DEDDF9"/>
<path d="M16.3268 74.2608C15.675 74.7158 15.0001 75.1325 14.2895 75.4673C13.607 75.7741 12.8912 76.0246 12.1602 76.1089C12.1883 76.2393 12.2189 76.3671 12.2471 76.4975C13.019 76.3748 13.745 76.0936 14.425 75.746C14.7854 75.5568 15.1305 75.3472 15.4654 75.1248C15.7977 74.8973 16.1172 74.6545 16.4316 74.4039C17.0553 73.9004 17.6509 73.3636 18.2312 72.8165C17.6024 73.3022 16.9786 73.8032 16.3268 74.2608Z" fill="#DEDDF9"/>
<path d="M86.1705 83.4325V41.2472L86.9783 40.9583V31.5208L86.1705 31.2319V29.4247L86.9783 29.1358V24.1435L86.1705 23.8547V22.8449L86.9783 22.5561V17.5612L86.1705 17.2724V16.7765C78.9569 12.707 70.7054 10.3936 61.935 10.3936C54.0669 10.3936 46.6181 12.2545 39.9591 15.575V28.9645H33.3615C32.5384 26.9579 30.565 25.5392 28.267 25.5392C27.3212 25.5392 26.4316 25.7795 25.6545 26.2013C24.7854 27.1164 23.947 28.0673 23.1417 29.0463C22.8989 29.6675 22.7609 30.3398 22.7609 31.0479C22.7609 33.5555 24.448 35.6746 26.746 36.3367V48.875C26.746 51.3775 28.7731 53.4046 31.2756 53.4046H39.9591V83.4325C39.9591 85.6488 41.1248 87.7142 42.8988 89H83.1209C84.9947 87.7423 86.1705 85.7204 86.1705 83.4325Z" fill="#DEDDF9"/>
<path d="M89.3683 44.9077L96.017 54.5626L99.0359 50.1147L102.203 51.5922L100.437 47.5943L105.634 45.1199L89.3683 44.9077Z" fill="#DEDDF9"/>
<path d="M111.431 89H12.4411" stroke="#5774BE" stroke-width="2.0719" stroke-miterlimit="10" stroke-linecap="round" stroke-linejoin="round"/>
<path d="M85.4441 21.0198V16.0275L84.6363 15.7387V13.8062C84.6363 10.23 81.7273 7.31847 78.1486 7.31847H44.9126C41.3365 7.31847 38.4249 10.2274 38.4249 13.8062V81.8988C38.4249 85.2449 41.0834 88.251 44.4781 88.7418C44.5445 88.752 44.6135 88.7572 44.68 88.7572H77.916C77.9722 88.7572 78.031 88.7546 78.0873 88.7469C81.8807 88.2817 84.6338 85.4008 84.6338 81.8988V39.7135L85.4415 39.4246V29.987L84.6338 29.6982V27.8909L85.4415 27.6021V22.6098L84.6338 22.3209V21.3112L85.4441 21.0198Z" fill="#083A81"/>
<path d="M44.6825 87.3487C42.1135 86.978 39.8333 84.6979 39.8333 81.8988V13.8062C39.8333 11.0045 42.1109 8.72694 44.9125 8.72694H78.1485C80.9501 8.72694 83.2277 11.0045 83.2277 13.8062V81.8988C83.2277 84.6979 80.9501 86.978 77.9185 87.3487H44.6825Z" fill="#959CA2"/>
<path d="M78.1512 10.7157H72.3562C72.3562 10.7157 70.4391 13.4202 69.5009 13.4202H54.4269C53.4887 13.4202 51.5716 10.7157 51.5716 10.7157H44.9126C43.2051 10.7157 41.8221 12.0986 41.8221 13.8062V75.4162C41.8221 77.6222 43.6089 79.409 45.815 79.409H77.2488C79.4549 79.409 81.2416 77.6222 81.2416 75.4162V13.8062C81.2416 12.0986 79.8562 10.7157 78.1512 10.7157Z" fill="white"/>
<path d="M78.4298 17.7044H45.0736V21.0403H78.4298V17.7044Z" fill="#B5B5E2"/>
<path d="M78.4298 24.78H45.0737V26.4467H78.4298V24.78Z" fill="#B5B5E2"/>
<path d="M78.4298 28.8879H45.0737V30.5545H78.4298V28.8879Z" fill="#B5B5E2"/>
<path d="M78.4298 32.9932H45.0737V34.6598H78.4298V32.9932Z" fill="#B5B5E2"/>
<path d="M78.4298 37.101H45.0737V38.7677H78.4298V37.101Z" fill="#B5B5E2"/>
<path d="M78.4298 41.2089H45.0737V42.8755H78.4298V41.2089Z" fill="#B5B5E2"/>
<path d="M78.4298 45.3167H45.0737V46.9834H78.4298V45.3167Z" fill="#B5B5E2"/>
<path d="M78.4298 49.422H45.0737V51.0887H78.4298V49.422Z" fill="#B5B5E2"/>
<path d="M78.4298 53.5298H45.0737V55.1965H78.4298V53.5298Z" fill="#B5B5E2"/>
<path d="M78.4298 57.6377H45.0737V59.3044H78.4298V57.6377Z" fill="#B5B5E2"/>
<path d="M78.4298 61.7455H45.0737V63.4122H78.4298V61.7455Z" fill="#B5B5E2"/>
<path d="M78.4298 65.8534H45.0737V67.5201H78.4298V65.8534Z" fill="#B5B5E2"/>
<path d="M66.5102 69.9587H45.0737V71.6253H66.5102V69.9587Z" fill="#B5B5E2"/>
<path d="M58.0107 74.0665H45.0737V75.7332H58.0107V74.0665Z" fill="#B5B5E2"/>
<path d="M66.0142 11.7075H55.365C55.0915 11.7075 54.8691 11.4851 54.8691 11.2116C54.8691 10.9381 55.0915 10.7157 55.365 10.7157H66.0142C66.2877 10.7157 66.5101 10.9381 66.5101 11.2116C66.5101 11.4851 66.2877 11.7075 66.0142 11.7075Z" fill="#083A81"/>
<path d="M69.0563 11.2167C69.0563 11.4928 68.8313 11.7177 68.5553 11.7177C68.2792 11.7177 68.0543 11.4928 68.0543 11.2167C68.0543 10.9406 68.2792 10.7157 68.5553 10.7157C68.8313 10.7157 69.0563 10.9381 69.0563 11.2167Z" fill="#083A81"/>
<path d="M61.937 85.9837C63.2979 85.9837 64.4012 84.8804 64.4012 83.5195C64.4012 82.1585 63.2979 81.0553 61.937 81.0553C60.576 81.0553 59.4728 82.1585 59.4728 83.5195C59.4728 84.8804 60.576 85.9837 61.937 85.9837Z" fill="#083A81"/>
<path d="M79.0664 10.8537L41.8222 73.1258V75.4162C41.8222 77.6222 43.609 79.409 45.815 79.409H52.6989L81.2417 31.6895V13.8061C81.2417 12.4181 80.3266 11.2448 79.0664 10.8537Z" fill="white"/>
<path d="M72.3562 10.7157C72.3562 10.7157 70.4391 13.4202 69.5009 13.4202H55.9938L41.8247 37.1112V67.9188L76.0372 10.7157H72.3562Z" fill="white"/>
<path d="M65.4544 79.409L81.2417 53.016V36.8965L55.8124 79.409H65.4544Z" fill="white"/>
<path d="M84.1455 0C84.304 0.557257 84.3858 1.11196 84.4472 1.66921C84.5034 2.22647 84.529 2.78117 84.529 3.33843C84.529 3.89568 84.5034 4.45038 84.4472 5.00764C84.3858 5.5649 84.3066 6.1196 84.1455 6.67685C83.9845 6.1196 83.9052 5.5649 83.8439 5.00764C83.7876 4.45038 83.7621 3.89568 83.7621 3.33843C83.7621 2.78117 83.7876 2.22647 83.8439 1.66921C83.9078 1.11196 83.987 0.557257 84.1455 0Z" fill="#E8A712"/>
<path d="M92.9875 9.03114C92.4303 9.18962 91.8756 9.27142 91.3183 9.33277C90.7611 9.38901 90.2064 9.41457 89.6491 9.41457C89.0918 9.41457 88.5371 9.38901 87.9799 9.33277C87.4226 9.27142 86.8679 9.19218 86.3107 9.03114C86.8679 8.8701 87.4226 8.79085 87.9799 8.7295C88.5371 8.67327 89.0918 8.64771 89.6491 8.64771C90.2064 8.64771 90.7611 8.67327 91.3183 8.7295C91.8756 8.79085 92.4328 8.8701 92.9875 9.03114Z" fill="#E8A712"/>
<path d="M90.03 3.03935C89.7488 3.54548 89.4114 3.99538 89.0612 4.43249C88.7084 4.8645 88.3327 5.2786 87.939 5.67226C87.5453 6.06592 87.1338 6.44168 86.7018 6.79444C86.2647 7.14465 85.8148 7.48207 85.3087 7.7607C85.5873 7.25456 85.9247 6.80467 86.2749 6.36755C86.6277 5.93555 87.0034 5.52144 87.3971 5.13034C87.7907 4.73668 88.2023 4.36348 88.6369 4.00816C89.074 3.65796 89.5239 3.32054 90.03 3.03935Z" fill="#E8A712"/>
<path d="M91.1701 15.1661C90.6639 14.8849 90.214 14.5475 89.7769 14.1973C89.3449 13.8445 88.9308 13.4687 88.5372 13.0751C88.1435 12.6814 87.7677 12.2699 87.415 11.8379C87.0648 11.4007 86.7274 10.9508 86.4487 10.4447C86.9549 10.7233 87.4048 11.0608 87.8419 11.411C88.2739 11.7637 88.688 12.1395 89.0791 12.5332C89.4727 12.9268 89.8459 13.3384 90.2013 13.7729C90.554 14.21 90.8914 14.6599 91.1701 15.1661Z" fill="#E8A712"/>
<path d="M82.6246 6.62062C82.1185 6.33943 81.6686 6.00201 81.2315 5.65181C80.7995 5.29905 80.3853 4.92329 79.9917 4.52963C79.598 4.13597 79.2223 3.72442 78.8695 3.29242C78.5193 2.8553 78.1819 2.40541 77.9033 1.89928C78.4094 2.1779 78.8593 2.51533 79.2964 2.86553C79.7284 3.21829 80.1425 3.59405 80.5336 3.98771C80.9273 4.38137 81.3005 4.79292 81.6558 5.22748C82.006 5.66459 82.3434 6.11193 82.6246 6.62062Z" fill="#E8A712"/>
<path d="M41.7021 47.2543C41.7021 47.2543 45.263 60.222 61.3876 58.6755C61.3876 58.6755 53.3176 57.3131 53.3176 47.2543H41.7021Z" fill="#5DB4BB"/>
<path d="M59.4626 51.8683H29.744C27.2414 51.8683 25.2144 49.8412 25.2144 47.3387V31.9605C25.2144 29.4579 27.2414 27.4308 29.744 27.4308H59.4652C61.9677 27.4308 63.9948 29.4579 63.9948 31.9605V47.3387C63.9923 49.8412 61.9652 51.8683 59.4626 51.8683Z" fill="#5DB4BB"/>
<path d="M54.1948 35.0254H35.0104V48.8136H54.1948V35.0254Z" fill="white"/>
<path d="M51.7306 30.4855H37.4771V48.1516H51.7306V30.4855Z" fill="white"/>
<path d="M50.1434 32.4001H39.0647V33.4405H50.1434V32.4001Z" fill="#D0D0D0"/>
<path d="M50.1435 34.532H39.0649V35.5724H50.1435V34.532Z" fill="#D0D0D0"/>
<path d="M50.1435 36.6665H39.0649V37.7069H50.1435V36.6665Z" fill="#D0D0D0"/>
<path d="M50.1435 38.7984H39.0649V39.8387H50.1435V38.7984Z" fill="#D0D0D0"/>
<path d="M50.1435 40.9303H39.0649V41.9706H50.1435V40.9303Z" fill="#D0D0D0"/>
<path d="M50.1435 43.0647H39.0649V44.1051H50.1435V43.0647Z" fill="#D0D0D0"/>
<path d="M50.1435 45.1966H39.0649V46.237H50.1435V45.1966Z" fill="#D0D0D0"/>
<path d="M39.2997 41.4824L35.0104 35.0254V48.8162H54.1948V35.0254L49.9234 41.4824H39.2997Z" fill="#E8A712"/>
<path d="M54.1948 48.8162H35.0104L39.2997 41.4824H49.908L54.1948 48.8162Z" fill="#E8A712"/>
<path d="M35.0104 48.8162C35.3427 48.1899 35.6827 47.5688 36.0252 46.9501C36.3652 46.329 36.7026 45.7078 37.0528 45.0918L38.0932 43.2411L39.1387 41.3929L39.1898 41.3009H39.2997C41.0686 41.2805 42.835 41.2779 44.6039 41.2728C46.3728 41.2779 48.1391 41.2805 49.908 41.3009H50.018L50.0691 41.3929C50.772 42.6225 51.4597 43.8597 52.155 45.0918C52.5052 45.7078 52.8426 46.329 53.1826 46.9501C53.5225 47.5713 53.8625 48.1925 54.1948 48.8162C53.8114 48.2206 53.4382 47.6199 53.065 47.0166C52.6918 46.4159 52.3134 45.8152 51.9479 45.2094C51.2143 43.9977 50.473 42.7937 49.747 41.577L49.908 41.669C48.1391 41.6894 46.3728 41.692 44.6039 41.6971C42.835 41.692 41.0686 41.6894 39.2997 41.669L39.4608 41.577L38.3616 43.3944L37.2573 45.2094C36.8918 45.8152 36.5134 46.4159 36.1402 47.0166C35.767 47.6173 35.3938 48.218 35.0104 48.8162Z" fill="white"/>
<path d="M60.838 35.6031C60.5569 36.1092 60.2194 36.5591 59.8692 36.9962C59.5165 37.4282 59.1407 37.8424 58.7471 38.236C58.3534 38.6297 57.9418 39.0054 57.5098 39.3582C57.0727 39.7084 56.6228 40.0458 56.1167 40.3244C56.3953 39.8183 56.7327 39.3684 57.083 38.9313C57.4357 38.4993 57.8115 38.0852 58.2051 37.6941C58.5988 37.3004 59.0103 36.9272 59.4449 36.5719C59.882 36.2192 60.3319 35.8817 60.838 35.6031Z" fill="#E2C7C9"/>
<path d="M60.7051 48.2385C60.199 47.9573 59.7491 47.6199 59.312 47.2697C58.88 46.9169 58.4659 46.5412 58.0722 46.1475C57.6785 45.7539 57.3028 45.3423 56.95 44.9103C56.5998 44.4732 56.2624 44.0233 55.9838 43.5172C56.4899 43.7958 56.9398 44.1332 57.3769 44.4834C57.8089 44.8362 58.223 45.2119 58.6141 45.6056C59.0078 45.9993 59.381 46.4108 59.7363 46.8454C60.0891 47.2825 60.4265 47.7324 60.7051 48.2385Z" fill="#E2C7C9"/>
<path d="M62.8498 41.9119C62.2926 42.0703 61.7379 42.1521 61.1806 42.2135C60.6234 42.2697 60.0687 42.2953 59.5114 42.2953C58.9541 42.2953 58.3994 42.2697 57.8422 42.2135C57.2849 42.1521 56.7302 42.0729 56.173 41.9119C56.7302 41.7508 57.2849 41.6716 57.8422 41.6102C58.3994 41.554 58.9541 41.5284 59.5114 41.5284C60.0687 41.5284 60.6234 41.554 61.1806 41.6102C61.7353 41.6716 62.2926 41.7508 62.8498 41.9119Z" fill="#E2C7C9"/>
<path d="M28.3693 35.6031C28.8755 35.8843 29.3254 36.2217 29.7625 36.5719C30.1945 36.9247 30.6086 37.3004 31.0022 37.6941C31.3959 38.0878 31.7717 38.4993 32.1244 38.9313C32.4746 39.3684 32.812 39.8183 33.0907 40.3244C32.5845 40.0458 32.1346 39.7084 31.6975 39.3582C31.2655 39.0054 30.8514 38.6297 30.4603 38.236C30.0667 37.8424 29.6934 37.4308 29.3381 36.9962C28.9854 36.5591 28.648 36.1092 28.3693 35.6031Z" fill="#E2C7C9"/>
<path d="M28.4996 48.2385C28.7808 47.7324 29.1182 47.2825 29.4684 46.8454C29.8212 46.4134 30.197 45.9993 30.5906 45.6056C30.9843 45.2119 31.3958 44.8362 31.8278 44.4834C32.265 44.1332 32.7148 43.7958 33.221 43.5172C32.9424 44.0233 32.6049 44.4732 32.2547 44.9103C31.902 45.3423 31.5262 45.7564 31.1325 46.1475C30.7389 46.5412 30.3273 46.9144 29.8928 47.2697C29.4557 47.6225 29.0058 47.9599 28.4996 48.2385Z" fill="#E2C7C9"/>
<path d="M26.3575 41.9119C26.9148 41.7534 27.4695 41.6716 28.0268 41.6102C28.584 41.554 29.1387 41.5284 29.696 41.5284C30.2532 41.5284 30.8079 41.554 31.3652 41.6102C31.9224 41.6716 32.4771 41.7508 33.0344 41.9119C32.4771 42.0729 31.9224 42.1521 31.3652 42.2135C30.8079 42.2697 30.2532 42.2953 29.696 42.2953C29.1387 42.2953 28.584 42.2697 28.0268 42.2135C27.4695 42.1521 26.9148 42.0703 26.3575 41.9119Z" fill="#E2C7C9"/>
<path d="M28.7404 34.3506C31.4129 33.2436 32.6821 30.1796 31.575 27.5071C30.468 24.8345 27.404 23.5654 24.7314 24.6724C22.0589 25.7794 20.7898 28.8434 21.8968 31.516C23.0038 34.1886 26.0678 35.4577 28.7404 34.3506Z" fill="white" stroke="#E8A712" stroke-width="2.1036" stroke-miterlimit="10"/>
<path d="M27.2798 26.5336H26.6893C26.6126 26.5336 26.541 26.5796 26.5129 26.6512C26.38 26.9707 25.9122 27.188 25.2604 27.234C25.1607 27.2417 25.0814 27.326 25.0814 27.4257V28.0137C25.0814 28.121 25.1683 28.2054 25.2731 28.2054H26.2445V32.2953C26.2445 32.4027 26.3314 32.4871 26.4362 32.4871H27.2798C27.3871 32.4871 27.4715 32.4001 27.4715 32.2953V26.7228C27.4715 26.6205 27.3846 26.5336 27.2798 26.5336Z" fill="#0076BF"/>
<path d="M20.8307 67.1034L35.9713 61.2726L26.3547 75.2373L20.8307 67.1034Z" fill="#3299C7"/>
<path d="M17.403 70.9403L20.8308 67.1034L21.9863 68.8058L17.403 70.9403Z" fill="#0376B9"/>
<path d="M19.9617 65.1607L17.403 70.9403L20.8308 67.1034L35.9714 61.2726L19.9617 65.1607Z" fill="#0376B9"/>
<path d="M12.4411 61.5794L19.9615 65.1607L35.9711 61.2726L12.4411 61.5794Z" fill="white"/>
<path d="M16.6972 71.2777C16.117 71.8273 15.5239 72.3615 14.8977 72.8651C14.5832 73.1156 14.2637 73.3585 13.9314 73.586C13.5965 73.8084 13.2489 74.0205 12.891 74.2071C12.1702 74.5778 11.3956 74.8743 10.5725 74.9817C9.75455 75.0942 8.91099 75.0328 8.11089 74.7951C7.31591 74.5573 6.5516 74.1228 5.9969 73.4658C5.4422 72.8217 5.10733 71.9551 5.17124 71.0809C5.19936 70.6463 5.33995 70.2067 5.59557 69.8334C5.85886 69.4577 6.21162 69.197 6.58739 68.9873C6.77655 68.8851 6.97849 68.7982 7.19577 68.7419C7.41049 68.6857 7.64822 68.6525 7.89873 68.701C8.14924 68.7419 8.39975 68.9107 8.53523 69.1279C8.67071 69.3452 8.72694 69.5804 8.74739 69.8002V69.8028C8.75251 69.8565 8.73973 69.9076 8.71161 69.951C8.45854 70.3421 8.07766 70.6719 7.63799 70.8432C7.20088 71.0221 6.72798 71.0553 6.28064 71.0195C5.3834 70.9352 4.55519 70.6029 3.79343 70.1913C3.02912 69.7772 2.32616 69.2685 1.68455 68.6934C1.0455 68.1182 0.452451 67.4817 0 66.7532C0.516357 67.4357 1.13496 68.0288 1.79958 68.5579C2.46675 69.0819 3.1825 69.542 3.93658 69.9153C4.69067 70.2782 5.49588 70.5696 6.30876 70.6182C6.71264 70.6387 7.11652 70.5901 7.46928 70.4393C7.8246 70.291 8.11601 70.0277 8.3205 69.7005L8.28472 69.8513C8.26427 69.675 8.2157 69.5139 8.13646 69.3912C8.05466 69.2736 7.9473 69.2021 7.80159 69.1791C7.50763 69.1279 7.13697 69.2506 6.82256 69.4245C6.50303 69.6034 6.19884 69.8386 6.00712 70.1197C5.81285 70.4086 5.70038 70.7562 5.67993 71.1167C5.65436 71.4771 5.70805 71.8478 5.82563 72.1928C5.94577 72.5354 6.13749 72.8626 6.37522 73.1463C6.85323 73.7163 7.52296 74.1202 8.24637 74.3554C8.97234 74.588 9.7571 74.6596 10.5214 74.5855C11.2883 74.5113 12.0373 74.2532 12.7504 73.9311C13.4611 73.5962 14.1385 73.1795 14.7877 72.7245C15.4447 72.2695 16.0684 71.7685 16.6972 71.2777Z" fill="#0376B9"/>
<path d="M97.9112 47.2981L87.9339 43.4558L94.271 52.6582L97.9112 47.2981Z" fill="#3299C7"/>
<path d="M100.17 49.8266L97.9112 47.2981L97.1498 48.42L100.17 49.8266Z" fill="#0376B9"/>
<path d="M98.4839 46.0179L100.17 49.8265L97.9112 47.2981L87.9339 43.4558L98.4839 46.0179Z" fill="#0376B9"/>
<path d="M103.44 43.6579L98.484 46.0179L87.934 43.4558L103.44 43.6579Z" fill="white"/>
<path d="M100.635 50.0489C101.017 50.4111 101.408 50.7631 101.821 51.095C102.028 51.26 102.239 51.4201 102.458 51.57C102.678 51.7165 102.907 51.8564 103.143 51.9793C103.618 52.2236 104.129 52.419 104.671 52.4897C105.21 52.5638 105.766 52.5234 106.293 52.3668C106.817 52.2101 107.321 51.9237 107.686 51.4908C108.052 51.0663 108.272 50.4953 108.23 49.9192C108.212 49.6328 108.119 49.3431 107.951 49.0972C107.777 48.8495 107.545 48.6777 107.297 48.5396C107.172 48.4722 107.039 48.4149 106.896 48.3779C106.755 48.3408 106.598 48.3189 106.433 48.3509C106.268 48.3779 106.103 48.489 106.014 48.6322C105.924 48.7754 105.887 48.9304 105.874 49.0753V49.0769C105.87 49.1123 105.879 49.146 105.897 49.1746C106.064 49.4324 106.315 49.6497 106.605 49.7625C106.893 49.8804 107.204 49.9023 107.499 49.8788C108.091 49.8232 108.636 49.6042 109.138 49.333C109.642 49.0601 110.105 48.7249 110.528 48.3459C110.949 47.9669 111.34 47.5474 111.638 47.0673C111.298 47.5171 110.89 47.9079 110.452 48.2566C110.013 48.6019 109.541 48.9051 109.044 49.1511C108.547 49.3903 108.016 49.5823 107.481 49.6143C107.215 49.6278 106.948 49.5958 106.716 49.4964C106.482 49.3987 106.29 49.2252 106.155 49.0096L106.179 49.1089C106.192 48.9927 106.224 48.8866 106.276 48.8057C106.33 48.7282 106.401 48.6811 106.497 48.6659C106.691 48.6322 106.935 48.7131 107.142 48.8276C107.353 48.9455 107.553 49.1005 107.679 49.2858C107.808 49.4762 107.882 49.7053 107.895 49.9428C107.912 50.1803 107.877 50.4245 107.799 50.6519C107.72 50.8777 107.594 51.0933 107.437 51.2803C107.122 51.6559 106.681 51.9221 106.204 52.077C105.725 52.2303 105.208 52.2775 104.705 52.2286C104.199 52.1798 103.706 52.0096 103.236 51.7974C102.768 51.5767 102.321 51.3022 101.893 51.0023C101.46 50.7025 101.049 50.3723 100.635 50.0489Z" fill="#0376B9"/>
</svg>
