<svg width="17" height="18" viewBox="0 0 17 18" fill="none" xmlns="http://www.w3.org/2000/svg">
<path d="M2.2424 1.0556C2.06961 1.25985 2.02876 1.5783 2.03134 1.92347C2.06009 5.35529 3.1731 8.603 5.06027 11.2488C6.94745 13.8946 9.73382 16.0991 12.8857 17.1273C13.2082 17.2359 13.5223 17.3095 13.7741 17.2116C13.8605 17.1771 13.9794 17.1068 14.0323 16.9794L14.9629 14.6971C15.04 14.4989 15.0054 14.2775 14.8588 14.08C14.7911 13.9888 13.098 13.0348 12.3207 12.4802C12.0028 12.2506 11.5714 12.2813 11.3566 12.5402L10.9279 13.0513C10.7799 13.2254 10.567 13.3358 10.3404 13.3563C9.46908 13.43 7.29387 10.6266 6.82888 9.97628C6.34796 9.29657 4.33724 6.25385 4.68717 5.45389C4.77945 5.24447 4.95294 5.08088 5.16095 5.00354C5.70614 4.80039 5.5561 4.85252 5.77835 4.77053C6.10228 4.64276 6.26202 4.25404 6.15637 3.87332C5.92085 3.04744 5.82885 2.30368 5.71954 1.44918C5.67354 1.0773 5.37244 0.735221 5.01795 0.750293C5.01795 0.750293 4.97719 0.751015 2.53913 0.883238C2.40926 0.891035 2.30828 0.977477 2.2424 1.0556Z" stroke="#E8A712" stroke-width="1.5" stroke-miterlimit="10"/>
<path d="M9.29077 3.48096C11.8883 3.9132 13.6345 6.36912 13.2004 8.95489" stroke="#E8A712" stroke-width="1.5" stroke-miterlimit="10" stroke-linecap="round" stroke-linejoin="round"/>
<path d="M9.62109 1.49609C13.3157 2.1112 15.8079 5.60383 15.1821 9.2902" stroke="#E8A712" stroke-width="1.5" stroke-miterlimit="10" stroke-linecap="round" stroke-linejoin="round"/>
</svg>
