<svg width="8" height="14" viewBox="0 0 8 14" fill="none" xmlns="http://www.w3.org/2000/svg">
<path d="M0.220082 13.1731C0.0594096 12.9422 -0.0179457 12.6451 0.004868 12.3466C0.0276817 12.0481 0.148816 11.7723 0.34188 11.5794L5.17678 6.78726L0.341961 2.00031C0.148138 1.80815 0.026515 1.53231 0.00384735 1.23347C-0.0188203 0.934627 0.0593241 0.637271 0.22109 0.406811C0.382855 0.176352 0.614992 0.0316684 0.86643 0.0045895C1.11787 -0.0224894 1.36801 0.0702545 1.56184 0.262418L7.27438 5.9175C7.38148 6.02359 7.46764 6.15636 7.52676 6.30643C7.58589 6.4565 7.61653 6.6202 7.61653 6.78593C7.61653 6.95167 7.58589 7.1154 7.52676 7.26553C7.46764 7.41566 7.38148 7.54853 7.27438 7.65473L1.56176 13.316C1.36774 13.5083 1.11747 13.6013 0.865914 13.5745C0.614358 13.5477 0.382078 13.4034 0.220082 13.1731Z" fill="#E8A712"/>
</svg>
